<?xml version="1.0" standalone="no"?>
<!DOCTYPE svg PUBLIC "-//W3C//DTD SVG 20010904//EN"
 "http://www.w3.org/TR/2001/REC-SVG-20010904/DTD/svg10.dtd">
<svg version="1.0" xmlns="http://www.w3.org/2000/svg"
 width="127.000000pt" height="127.000000pt" viewBox="0 0 127.000000 127.000000"
 preserveAspectRatio="xMidYMid meet">
<metadata>
Created by potrace 1.11, written by Peter Selinger 2001-2013
</metadata>
<g transform="translate(0.000000,127.000000) scale(0.100000,-0.100000)"
fill="#000000" stroke="none">
<path d="M630 1171 c0 -5 5 -13 11 -16 23 -15 65 -84 64 -106 -4 -61 -19 -110
-36 -120 -11 -5 -42 -30 -69 -54 -46 -41 -55 -45 -103 -45 -41 0 -71 -9 -136
-40 -75 -36 -90 -40 -154 -39 -109 2 -189 0 -194 -5 -3 -2 -2 -13 1 -23 5 -14
17 -18 58 -19 29 -1 69 -6 88 -11 45 -12 150 -6 219 13 30 9 74 17 98 18 l44
3 -48 -25 c-27 -13 -55 -30 -64 -38 -8 -8 -20 -14 -25 -14 -5 0 -18 -16 -29
-36 -25 -46 -75 -79 -143 -93 -29 -6 -71 -20 -92 -31 -32 -16 -40 -26 -40 -48
0 -42 17 -52 90 -52 98 0 110 -6 103 -44 -3 -17 -12 -43 -19 -58 -8 -15 -10
-29 -5 -32 4 -3 8 -19 9 -36 1 -51 14 -94 30 -106 9 -6 30 -8 53 -4 21 4 52 6
68 5 17 -2 31 1 31 5 0 11 62 31 99 32 17 1 28 4 26 8 -3 5 2 10 9 13 9 4 22
-7 35 -28 24 -41 64 -69 89 -61 14 5 22 24 31 74 7 37 19 78 26 92 7 14 31 62
54 106 43 85 49 121 30 187 -6 21 -9 42 -7 47 2 5 29 -14 61 -43 43 -39 57
-59 57 -80 0 -16 12 -40 28 -57 15 -17 36 -42 47 -56 11 -14 27 -33 35 -43 21
-25 144 -84 148 -71 5 15 -26 60 -46 67 -20 8 -53 46 -106 122 -39 56 -54 93
-63 164 -3 20 -9 40 -14 43 -29 18 102 144 156 150 36 3 94 35 115 62 19 23
28 72 14 72 -14 0 -104 -72 -99 -80 3 -5 0 -12 -6 -16 -8 -5 -9 -3 -4 6 6 10
4 11 -11 6 -10 -5 -32 -12 -49 -16 -16 -5 -44 -13 -62 -18 -37 -12 -50 5 -28
35 8 10 15 33 15 51 0 21 5 32 14 32 43 0 114 106 88 132 -7 7 -16 0 -27 -21
-33 -65 -89 -100 -121 -77 -9 7 -26 11 -35 9 -11 -3 -31 5 -46 18 -25 22 -28
29 -23 74 3 28 13 64 22 82 18 35 15 43 -10 36 -18 -4 -47 -66 -57 -123 -5
-24 -17 -41 -38 -55 l-32 -21 -1 53 c-1 33 -11 71 -25 101 -22 42 -28 47 -61
50 -21 2 -38 -1 -38 -7z m90 -231 c0 -5 -2 -10 -4 -10 -3 0 -8 5 -11 10 -3 6
-1 10 4 10 6 0 11 -4 11 -10z m196 -17 c4 -15 8 -38 9 -50 0 -13 8 -32 18 -43
12 -15 14 -26 8 -43 -10 -27 -59 -63 -80 -59 -7 2 -10 -1 -7 -7 4 -5 15 -9 26
-8 10 1 17 4 14 8 -2 4 1 11 7 15 12 7 31 -15 23 -28 -3 -4 0 -17 6 -28 8 -14
8 -20 0 -20 -6 0 -9 -4 -6 -9 6 -10 -56 -61 -74 -61 -7 0 -10 7 -6 15 3 8 2
14 -2 14 -25 -4 -42 3 -42 19 0 9 -5 24 -11 32 -9 12 -10 11 -6 -7 4 -18 1
-23 -15 -23 -12 0 -17 4 -12 12 4 6 3 8 -2 5 -6 -3 -16 -1 -24 4 -13 9 -13 11
-1 16 11 4 8 10 -10 24 -21 16 -22 21 -11 39 10 16 10 20 0 22 -7 0 -17 2 -23
3 -5 2 -15 3 -22 4 -12 1 -12 32 0 31 4 0 12 0 18 0 5 0 8 -4 5 -8 -3 -5 1 -9
9 -9 11 0 10 5 -2 24 -14 20 -14 23 0 29 10 3 13 12 10 22 -5 13 -3 14 6 6 7
-6 14 -20 15 -30 2 -10 9 -20 17 -22 8 -2 10 0 4 5 -5 4 -12 19 -13 33 -2 14
-8 27 -13 28 -5 2 -7 8 -3 13 3 5 0 9 -5 9 -6 0 -11 -6 -11 -14 0 -8 -7 -17
-16 -20 -11 -4 -15 -14 -12 -31 4 -20 3 -23 -8 -14 -8 6 -14 19 -15 28 0 11
-2 12 -6 3 -3 -7 1 -19 7 -27 10 -12 9 -15 -4 -15 -9 0 -16 -6 -16 -12 0 -7
-8 3 -19 22 -10 19 -16 39 -13 45 3 5 7 4 10 -3 2 -7 8 -10 12 -7 5 3 7 12 3
20 -5 15 -2 16 35 19 9 0 23 6 31 14 10 10 16 10 27 1 11 -9 21 -9 40 0 14 6
30 9 35 5 6 -3 17 0 26 8 18 15 23 15 33 -1 9 -16 40 -2 33 15 -3 8 0 14 6 14
6 0 14 -12 17 -27z m63 -58 c0 -5 -6 -1 -14 9 -8 10 -11 24 -8 29 6 10 21 -16
22 -38z m238 -9 c0 -8 -6 -12 -14 -9 -7 3 -13 -1 -13 -8 0 -7 -3 -9 -6 -6 -7
7 14 37 26 37 3 0 7 -6 7 -14z m-627 -30 c0 -2 -7 -7 -16 -10 -8 -3 -12 -2 -9
4 6 10 25 14 25 6z m-32 -27 c10 -15 10 -24 2 -34 -9 -11 -15 -11 -31 3 -10 9
-19 20 -19 25 0 5 7 3 16 -4 15 -12 16 -11 10 9 -9 28 5 29 22 1z m-61 -16 c2
-5 -6 -9 -19 -8 -12 1 -24 7 -26 13 -2 8 5 11 19 9 13 -2 24 -8 26 -14z m579
8 c-3 -5 -17 -11 -32 -14 -29 -5 -20 9 11 16 11 3 21 5 23 6 2 0 1 -3 -2 -8z
m-669 -33 c-3 -7 -5 -2 -5 12 0 14 2 19 5 13 2 -7 2 -19 0 -25z m-32 -40 c-5
-4 -13 -8 -17 -8 -13 0 -9 45 5 59 10 10 13 7 17 -16 3 -15 1 -31 -5 -35z
m627 40 c-7 -7 -12 -8 -12 -2 0 14 12 26 19 19 2 -3 -1 -11 -7 -17z m-557 2
c-3 -5 -11 -10 -16 -10 -6 0 -7 5 -4 10 3 6 11 10 16 10 6 0 7 -4 4 -10z m554
-32 c0 -5 -8 -22 -18 -38 -15 -25 -20 -28 -25 -15 -3 9 -2 13 4 10 6 -3 10 1
10 9 0 9 -6 13 -14 10 -10 -4 -13 0 -11 13 2 10 4 24 4 31 1 7 6 10 11 7 6 -3
10 0 10 7 0 12 27 -19 29 -34z m-293 16 c-3 -9 -6 -19 -6 -24 0 -4 -15 -15
-32 -24 -28 -13 -29 -16 -11 -16 12 0 24 4 28 10 3 5 12 7 20 4 8 -4 12 -10 9
-15 -3 -5 -10 -6 -16 -3 -7 4 -8 2 -4 -5 9 -14 -81 -124 -95 -115 -5 3 -9 -1
-9 -9 0 -15 -59 -72 -66 -64 -8 8 38 122 60 146 20 22 20 22 -18 -3 -21 -14
-53 -26 -70 -26 -21 0 -27 -3 -18 -9 10 -6 6 -11 -17 -19 -19 -7 -31 -18 -31
-29 1 -17 1 -17 14 -1 12 16 97 60 103 54 6 -6 -49 -135 -60 -139 -7 -3 -29
-13 -51 -22 -38 -16 -39 -16 -33 4 3 12 1 19 -4 15 -5 -3 -9 -11 -9 -19 0 -7
-14 -18 -31 -24 -37 -13 -159 -15 -159 -3 0 11 30 38 50 45 8 3 -4 6 -28 6
-29 1 -45 6 -49 16 -7 20 -4 23 34 30 18 3 44 10 58 15 24 9 39 5 84 -26 2 -2
-4 -10 -13 -19 -9 -9 -16 -13 -16 -8 0 4 -7 -5 -15 -21 -9 -16 -14 -30 -13
-30 2 -1 32 30 68 69 36 38 51 57 34 42 -28 -25 -34 -27 -58 -16 -14 7 -26 15
-26 18 0 10 113 117 137 129 12 7 32 12 44 12 19 0 20 -2 8 -17 -13 -17 -12
-17 6 -2 11 9 27 19 35 22 11 4 10 6 -5 7 -11 1 -27 2 -35 1 -21 -3 37 32 88
52 23 9 50 17 59 17 14 0 14 -3 -3 -22 -19 -23 -19 -23 2 -5 11 9 26 17 32 17
7 0 12 5 12 10 0 6 5 10 11 10 6 0 8 -7 5 -16z m-456 -18 c0 -2 -7 -9 -15 -16
-13 -11 -14 -10 -9 4 5 14 24 23 24 12z m480 -84 c0 -11 -10 -24 -22 -31 -16
-8 -17 -10 -4 -6 11 3 23 0 28 -7 6 -11 8 -10 8 0 0 7 5 10 10 7 6 -4 9 -1 8
6 -5 18 18 22 35 5 20 -20 48 -144 40 -176 -3 -13 -26 -60 -51 -104 -25 -45
-51 -97 -58 -116 -9 -25 -13 -29 -14 -15 -1 13 -5 7 -12 -15 -5 -19 -19 -46
-31 -60 l-22 -25 28 24 c15 14 27 31 27 38 0 8 5 11 10 8 6 -4 7 -13 1 -23
-10 -18 -11 -24 -11 -46 0 -9 -8 -12 -25 -8 -28 5 -72 70 -97 143 -15 45 -15
45 13 77 16 18 29 38 29 45 0 6 -9 -3 -20 -20 -23 -38 -42 -43 -36 -10 3 12 5
31 5 43 1 11 12 27 26 34 14 7 23 15 20 18 -2 3 -11 -1 -20 -8 -8 -7 -15 -9
-15 -6 0 17 32 66 52 80 12 9 18 16 12 16 -5 0 -16 -6 -23 -12 -18 -18 0 17
51 100 41 63 58 77 58 44z m230 -67 c0 -12 -19 -12 -23 0 -4 9 -1 12 9 8 7 -3
14 -7 14 -8z m34 -78 c-5 -14 -34 -19 -34 -7 0 11 12 20 26 20 8 0 11 -6 8
-13z m-831 -21 c4 -9 -1 -17 -11 -19 -9 -3 0 -5 21 -6 41 -1 46 -10 18 -35
-19 -17 -64 -17 -90 -1 -20 12 -11 44 17 59 34 19 39 19 45 2z m413 -8 c5 -7
3 -8 -6 -3 -9 6 -10 2 -5 -15 5 -14 3 -20 -3 -16 -6 4 -8 -2 -5 -14 6 -21 -11
-28 -22 -9 -4 6 -13 8 -21 5 -28 -11 -26 18 2 41 32 25 49 29 60 11z m429 -8
c3 -6 -1 -7 -9 -4 -18 7 -21 14 -7 14 6 0 13 -4 16 -10z m45 -54 c0 -15 -18
-31 -26 -23 -7 7 7 37 17 37 5 0 9 -6 9 -14z m-609 -41 c68 -34 86 -51 110
-97 22 -43 23 -48 9 -48 -5 0 -10 9 -10 19 0 11 -4 22 -9 25 -11 7 -2 -34 11
-51 6 -8 4 -10 -9 -6 -19 5 -57 73 -42 73 14 0 11 20 -6 36 -8 9 -15 11 -15 5
0 -5 5 -13 11 -17 7 -4 7 -10 1 -16 -11 -11 -77 23 -77 40 0 5 -4 14 -9 19 -5
5 -6 3 -2 -4 4 -7 3 -13 -3 -13 -15 0 -85 34 -89 43 -2 4 -9 4 -14 1 -7 -4 -8
-2 -4 5 4 6 12 9 17 6 5 -4 17 -2 26 3 22 13 39 9 104 -23z m36 13 c-3 -8 -6
-5 -6 6 -1 11 2 17 5 13 3 -3 4 -12 1 -19z m-127 -86 c0 -1 -8 1 -17 6 -10 5
-24 7 -32 4 -12 -4 -12 -3 -1 10 12 13 16 13 32 -1 10 -8 18 -17 18 -19z m-44
-11 c-4 -5 3 -7 14 -4 12 3 20 0 20 -6 0 -7 4 -10 8 -7 12 7 84 -43 77 -55 -4
-5 0 -9 8 -9 8 0 23 -12 32 -27 16 -23 16 -25 1 -20 -9 4 -16 3 -16 -1 0 -5
-11 -8 -25 -8 -14 0 -25 5 -25 11 0 20 13 25 29 12 14 -11 14 -10 2 6 -13 17
-15 17 -34 0 -11 -10 -18 -13 -14 -7 9 16 -21 54 -38 48 -8 -4 -15 -1 -15 4 0
6 -9 12 -20 14 -12 2 -21 8 -21 13 -1 6 -5 18 -10 28 -8 14 -6 17 11 17 12 0
19 -4 16 -9z m94 -1 c24 -15 7 -19 -20 -5 -15 8 -19 14 -10 14 8 1 22 -3 30
-9z"/>
<path d="M765 890 c-16 -7 -17 -9 -3 -9 9 -1 20 4 23 9 7 11 7 11 -20 0z"/>
<path d="M656 878 c3 -4 9 -8 15 -8 5 0 9 4 9 8 0 5 -7 9 -15 9 -8 0 -12 -4
-9 -9z"/>
<path d="M870 871 c0 -5 5 -13 10 -16 6 -3 10 -2 10 4 0 5 -4 13 -10 16 -5 3
-10 2 -10 -4z"/>
<path d="M915 820 c3 -5 8 -10 11 -10 2 0 4 5 4 10 0 6 -5 10 -11 10 -5 0 -7
-4 -4 -10z"/>
<path d="M846 803 c-6 -14 -5 -15 5 -6 7 7 10 15 7 18 -3 3 -9 -2 -12 -12z"/>
<path d="M772 770 c0 -14 2 -19 5 -12 2 6 2 18 0 25 -3 6 -5 1 -5 -13z"/>
<path d="M730 730 c0 -5 5 -10 10 -10 6 0 10 5 10 10 0 6 -4 10 -10 10 -5 0
-10 -4 -10 -10z"/>
<path d="M825 700 c-13 -6 -15 -9 -5 -9 8 0 22 4 30 9 18 12 2 12 -25 0z"/>
<path d="M895 650 c3 -5 11 -10 16 -10 6 0 7 5 4 10 -3 6 -11 10 -16 10 -6 0
-7 -4 -4 -10z"/>
<path d="M970 725 c0 -8 4 -15 10 -15 5 0 7 7 4 15 -4 8 -8 15 -10 15 -2 0 -4
-7 -4 -15z"/>
<path d="M466 623 c-6 -14 -5 -15 5 -6 7 7 10 15 7 18 -3 3 -9 -2 -12 -12z"/>
<path d="M640 630 c-8 -5 -12 -12 -9 -15 4 -3 12 1 19 10 14 17 11 19 -10 5z"/>
<path d="M428 593 c6 -2 18 -2 25 0 6 3 1 5 -13 5 -14 0 -19 -2 -12 -5z"/>
<path d="M605 589 c-4 -6 -5 -12 -2 -15 2 -3 7 2 10 11 7 17 1 20 -8 4z"/>
<path d="M421 504 c0 -11 3 -14 6 -6 3 7 2 16 -1 19 -3 4 -6 -2 -5 -13z"/>
<path d="M278 453 c7 -3 16 -2 19 1 4 3 -2 6 -13 5 -11 0 -14 -3 -6 -6z"/>
<path d="M750 551 c0 -6 4 -13 10 -16 6 -3 7 1 4 9 -7 18 -14 21 -14 7z"/>
<path d="M674 528 l-19 -23 23 19 c21 18 27 26 19 26 -2 0 -12 -10 -23 -22z"/>
<path d="M730 486 c0 -8 -12 -24 -26 -35 -15 -12 -22 -21 -17 -21 5 0 14 5 21
12 8 8 14 5 21 -15 6 -15 13 -27 16 -27 2 0 1 10 -4 23 -4 12 -6 34 -4 50 2
15 1 27 -2 27 -3 0 -5 -6 -5 -14z"/>
<path d="M625 409 c-10 -30 -2 -32 12 -3 6 13 7 24 3 24 -5 0 -12 -9 -15 -21z"/>
<path d="M690 379 c-7 -11 -10 -23 -7 -25 2 -2 9 7 15 21 14 30 7 33 -8 4z"/>
<path d="M681 330 c6 -31 -13 -58 -51 -75 -22 -10 -38 -20 -36 -22 7 -7 84 36
89 49 3 7 6 4 6 -7 1 -11 -6 -30 -14 -43 -14 -20 -14 -21 0 -16 8 3 15 10 15
16 0 5 4 6 10 3 5 -3 8 0 5 7 -2 7 -6 30 -8 51 -3 21 -8 41 -12 45 -4 4 -6 0
-4 -8z"/>
<path d="M634 178 l-19 -23 23 19 c21 18 27 26 19 26 -2 0 -12 -10 -23 -22z"/>
<path d="M105 440 c-3 -5 -2 -10 4 -10 5 0 13 5 16 10 3 6 2 10 -4 10 -5 0
-13 -4 -16 -10z"/>
<path d="M505 439 c-4 -6 -5 -12 -2 -15 2 -3 7 2 10 11 7 17 1 20 -8 4z"/>
<path d="M378 363 c7 -3 16 -2 19 1 4 3 -2 6 -13 5 -11 0 -14 -3 -6 -6z"/>
<path d="M430 329 c0 -5 5 -7 10 -4 6 3 10 8 10 11 0 2 -4 4 -10 4 -5 0 -10
-5 -10 -11z"/>
<path d="M310 250 c0 -5 5 -10 11 -10 5 0 7 5 4 10 -3 6 -8 10 -11 10 -2 0 -4
-4 -4 -10z"/>
<path d="M390 220 c0 -5 5 -10 11 -10 5 0 7 5 4 10 -3 6 -8 10 -11 10 -2 0 -4
-4 -4 -10z"/>
</g>
</svg>
